# xmcd
#
# Track frame offsets:
#	150
#	17902
#	32330
#	46162
#	61882
#	75970
#	92175
#	109715
#	129207
#	146970
#
# Disc length: 2301 seconds
#
# Revision: 0
# Processed by: cddbd v1.4PL0 Copyright (c) Steve Scherf et al.
# Submitted via: audiograbber 1.81.03
#
DISCID=7508fb0a
DTITLE=Various Artist - Blues Bar-B-Que (ED CD 7030)
DYEAR=1997
DGENRE=Blues
TTITLE0=Robert Ward - Meat Off The Bone
TTITLE1=Johnny Dyer - BBQ At J.D.'s
TTITLE2=Marcia Ball - Mama's Cooking
TTITLE3=Elvin Bishop - Pigmeat On The Line
TTITLE4=Son Seals - Hot Sauce
TTITLE5=William Clarke - Greasy Gravy
TTITLE6=Smokey Wilson - Smoke N' Fire
TTITLE7=Big Joe And The Dynaflows - Smells Like Bar-B-Q
TTITLE8=Johnny Heartsman - Heartburn
TTITLE9=Big Twist and The Mellow Fellows - Too Much Barbeque
EXTD=EASYDISC\n1997 Rounder Records Corp.\nED CD 7030\nhttp://www.rounder.com
EXTT0=
EXTT1=
EXTT2=
EXTT3=
EXTT4=
EXTT5=
EXTT6=
EXTT7=
EXTT8=
EXTT9=
PLAYORDER=
